<svg xmlns="http://www.w3.org/2000/svg" width="16" height="16" viewBox="0 0 16 16" fill="none">
  <path fill-rule="evenodd" clip-rule="evenodd" d="M5 2C4.58579 2 4.25 2.33579 4.25 2.75V3.5H3.5C2.67157 3.5 2 4.17157 2 5V12.5C2 13.3284 2.67157 14 3.5 14H12.5C13.3284 14 14 13.3284 14 12.5V5C14 4.17157 13.3284 3.5 12.5 3.5H11.75V2.75C11.75 2.33579 11.4142 2 11 2C10.5858 2 10.25 2.33579 10.25 2.75V3.5H5.75V2.75C5.75 2.33579 5.41421 2 5 2ZM5 5.75C4.58579 5.75 4.25 6.08579 4.25 6.5C4.25 6.91421 4.58579 7.25 5 7.25H11C11.4142 7.25 11.75 6.91421 11.75 6.5C11.75 6.08579 11.4142 5.75 11 5.75H5Z" fill="#FF9135"/>
</svg>