<svg width="31" height="27" viewBox="0 0 31 27" fill="none" xmlns="http://www.w3.org/2000/svg">
  <path d="M6.17322 21.3686C6.17322 21.9099 6.65855 22.3206 7.62922 22.6006C8.61855 22.8806 9.84122 23.0206 11.2972 23.0206C11.6332 23.0206 12.1559 23.0019 12.8652 22.9646C14.2092 22.8899 15.1986 22.7033 15.8332 22.4046C16.4679 22.1246 16.8226 21.7139 16.8972 21.1726C15.6466 20.8926 14.3399 20.6593 12.9772 20.4726C11.6146 20.2859 10.4106 20.1926 9.36522 20.1926C7.23722 20.1926 6.17322 20.5846 6.17322 21.3686ZM20.2852 0.424588V15.0406H16.9252V0.424588H20.2852ZM7.51722 13.9206C6.91989 13.9579 6.47189 13.9766 6.17322 13.9766C4.95989 13.9766 3.90522 13.7713 3.00922 13.3606C2.13189 12.9313 1.44122 12.1846 0.937219 11.1206C0.526552 10.2806 0.321219 9.29126 0.321219 8.15259C0.321219 6.93926 0.563885 5.57659 1.04922 4.06459H0.293219V0.98459H6.76122V4.06459H4.54922C3.97055 5.66992 3.68122 7.05126 3.68122 8.20859C3.68122 8.84326 3.77455 9.36592 3.96122 9.77659C4.16655 10.2246 4.40922 10.5326 4.68922 10.7006C4.98789 10.8499 5.42655 10.9246 6.00522 10.9246C6.39722 10.9246 6.90122 10.8966 7.51722 10.8406V13.9206ZM15.4412 13.8366C14.8999 13.9113 14.2652 13.9486 13.5372 13.9486C12.3239 13.9486 11.2599 13.7433 10.3452 13.3326C9.44922 12.9033 8.74922 12.1659 8.24522 11.1206C7.83455 10.2806 7.62922 9.29126 7.62922 8.15259C7.62922 6.93926 7.87189 5.57659 8.35722 4.06459H7.60122V0.98459H14.9092V4.06459H11.8572C11.2786 5.66992 10.9892 7.05126 10.9892 8.20859C10.9892 8.84326 11.0826 9.36592 11.2692 9.77659C11.4559 10.1873 11.7172 10.4859 12.0532 10.6726C12.3892 10.8406 12.8559 10.9246 13.4532 10.9246C13.6959 10.9246 14.3586 10.8686 15.4412 10.7566V13.8366ZM2.81322 15.5726H6.17322V17.5326C7.14389 17.2713 8.30122 17.1406 9.64522 17.1406C11.8106 17.1406 14.2372 17.4393 16.9252 18.0366V15.8526H20.2852V20.9206C20.2852 22.5259 19.6412 23.7393 18.3532 24.5606C17.0839 25.4006 15.3292 25.8953 13.0892 26.0446C12.3052 26.0819 11.7266 26.1006 11.3532 26.1006C8.92655 26.1006 6.89189 25.7273 5.24922 24.9806C3.62522 24.2339 2.81322 23.0299 2.81322 21.3686V15.5726ZM25.9088 23.1326C25.3488 23.1326 24.8635 22.9273 24.4528 22.5166C24.0608 22.1246 23.8648 21.6486 23.8648 21.0886C23.8648 20.5286 24.0608 20.0526 24.4528 19.6606C24.8635 19.2499 25.3488 19.0446 25.9088 19.0446C26.4688 19.0446 26.9448 19.2499 27.3368 19.6606C27.7475 20.0526 27.9528 20.5286 27.9528 21.0886C27.9528 21.6486 27.7475 22.1246 27.3368 22.5166C26.9448 22.9273 26.4688 23.1326 25.9088 23.1326ZM24.7888 16.6646L26.4688 2.10459H30.3888L27.5888 16.6646H24.7888Z" fill="#FF9135"/>
</svg>
