<svg xmlns="http://www.w3.org/2000/svg" width="33" height="32" viewBox="0 0 33 32" fill="#D6D6D6">
  <path d="M17.3336 4.43934C16.7478 3.85355 15.7981 3.85355 15.2123 4.43934L4.71229 14.9393C4.1265 15.5251 4.1265 16.4749 4.71229 17.0607C5.29808 17.6464 6.24782 17.6464 6.83361 17.0607L7.27295 16.6213V26.5C7.27295 27.3284 7.94452 28 8.77295 28H11.7729C12.6014 28 13.2729 27.3284 13.2729 26.5V23.5C13.2729 22.6716 13.9445 22 14.7729 22H17.7729C18.6014 22 19.2729 22.6716 19.2729 23.5V26.5C19.2729 27.3284 19.9445 28 20.7729 28H23.7729C24.6014 28 25.2729 27.3284 25.2729 26.5V16.6213L25.7123 17.0607C26.2981 17.6464 27.2478 17.6464 27.8336 17.0607C28.4194 16.4749 28.4194 15.5251 27.8336 14.9393L17.3336 4.43934Z" fill={fill}/>
</svg>