<svg xmlns="http://www.w3.org/2000/svg" width="33" height="32" viewBox="0 0 33 32" fill="#D6D6D6">
  <path d="M14.8647 4C14.0363 4 13.3647 4.67157 13.3647 5.5C13.3647 6.32843 14.0363 7 14.8647 7H17.8647C18.6932 7 19.3647 6.32843 19.3647 5.5C19.3647 4.67157 18.6932 4 17.8647 4H14.8647Z" fill="#D6D6D6"/>
  <path fill-rule="evenodd" clip-rule="evenodd" d="M7.36475 8.5C7.36475 6.84315 8.70789 5.5 10.3647 5.5C10.3647 7.98528 12.3795 10 14.8647 10H17.8647C20.35 10 22.3647 7.98528 22.3647 5.5C24.0216 5.5 25.3647 6.84315 25.3647 8.5V25C25.3647 26.6569 24.0216 28 22.3647 28H10.3647C8.70789 28 7.36475 26.6569 7.36475 25V8.5ZM11.8647 14.5C11.0363 14.5 10.3647 15.1716 10.3647 16C10.3647 16.8284 11.0363 17.5 11.8647 17.5H11.8797C12.7082 17.5 13.3797 16.8284 13.3797 16C13.3797 15.1716 12.7082 14.5 11.8797 14.5H11.8647ZM16.3647 14.5C15.5363 14.5 14.8647 15.1716 14.8647 16C14.8647 16.8284 15.5363 17.5 16.3647 17.5H20.8647C21.6932 17.5 22.3647 16.8284 22.3647 16C22.3647 15.1716 21.6932 14.5 20.8647 14.5H16.3647ZM11.8647 20.5C11.0363 20.5 10.3647 21.1716 10.3647 22C10.3647 22.8284 11.0363 23.5 11.8647 23.5H11.8797C12.7082 23.5 13.3797 22.8284 13.3797 22C13.3797 21.1716 12.7082 20.5 11.8797 20.5H11.8647ZM16.3647 20.5C15.5363 20.5 14.8647 21.1716 14.8647 22C14.8647 22.8284 15.5363 23.5 16.3647 23.5H20.8647C21.6932 23.5 22.3647 22.8284 22.3647 22C22.3647 21.1716 21.6932 20.5 20.8647 20.5H16.3647Z" fill={fill}/>
</svg>