<svg xmlns="http://www.w3.org/2000/svg" width="70" height="36" viewBox="0 0 70 36" fill="#FF9135">
  <g clip-path="url(#clip0_93_3240)">
    <path d="M64.2845 28.458C63.5267 28.458 62.8698 28.1801 62.3141 27.6243C61.7836 27.0938 61.5183 26.4496 61.5183 25.6918C61.5183 24.9339 61.7836 24.2897 62.3141 23.7592C62.8698 23.2034 63.5267 22.9255 64.2845 22.9255C65.0424 22.9255 65.6866 23.2034 66.2171 23.7592C66.7729 24.2897 67.0508 24.9339 67.0508 25.6918C67.0508 26.4496 66.7729 27.0938 66.2171 27.6243C65.6866 28.1801 65.0424 28.458 64.2845 28.458ZM62.7688 19.7046L65.0424 0H70.3475L66.5581 19.7046H62.7688Z" fill={fill}/>
    <path d="M40.6941 9.20747C43.1193 8.57591 45.5571 8.26013 48.0075 8.26013C51.2158 8.26013 53.8684 8.89169 55.9652 10.1548C58.0872 11.4179 59.1482 13.5147 59.1482 16.4451C59.1482 22.9123 54.5126 26.8532 45.2413 28.2679V35.9982H40.6941V9.20747ZM45.2413 24.0238C48.2728 23.5438 50.5843 22.7102 52.1758 21.5229C53.7926 20.3355 54.601 18.643 54.601 16.4451C54.601 15.0304 54.0326 13.9947 52.8958 13.3379C51.7842 12.681 50.2685 12.3526 48.3486 12.3526C47.3886 12.3526 46.3528 12.4284 45.2413 12.58V24.0238Z" fill={fill}/>
    <path d="M33.7775 6.25066C33.0196 6.25066 32.3628 5.9854 31.807 5.45489C31.2765 4.92439 31.0112 4.2802 31.0112 3.52233C31.0112 2.73919 31.2765 2.08237 31.807 1.55187C32.3628 1.02136 33.0196 0.756104 33.7775 0.756104C34.5353 0.756104 35.1795 1.02136 35.71 1.55187C36.2658 2.08237 36.5437 2.73919 36.5437 3.52233C36.5437 4.2802 36.2658 4.92439 35.71 5.45489C35.1795 5.9854 34.5353 6.25066 33.7775 6.25066ZM31.5038 28.4183V8.37269H36.0511V28.4183H31.5038Z" fill={fill}/>
    <path fill-rule="evenodd" clip-rule="evenodd" d="M22.6503 27.1411C23.946 26.7276 25.1239 26.1625 26.1841 25.4458V19.905C25.3203 20.9525 24.2012 21.7795 22.8269 22.386C21.4723 22.9649 20.3403 23.3002 18.7925 23.2543C17.8426 23.1769 17.4583 23.0798 16.8936 22.6189C16.3645 22.187 16.0928 21.7657 15.7983 21.0214C15.4253 20.1393 15.2388 18.9678 15.2388 17.5068C15.2388 16.2938 15.3566 14.7777 15.5921 12.9583H17.0155L26.1841 12.9583V8.4099H9.5162V8.40991H0.347656V12.9583H1.5256C1.30964 14.695 1.20166 16.1974 1.20166 17.4654C1.20166 19.7258 1.55505 21.683 2.26181 23.337C2.87042 24.8256 3.8324 25.942 5.14777 26.6863C6.46314 27.403 7.9552 27.7614 9.62395 27.7614C10.9001 27.7614 12.186 27.5546 13.4817 27.1412C13.8265 27.0311 14.1629 26.9104 14.4911 26.7789C15.7634 27.4339 17.1972 27.7614 18.7925 27.7614C20.0686 27.7614 21.3545 27.5546 22.6503 27.1411ZM11.3449 23.1312C10.6951 21.5214 10.3702 19.6328 10.3702 17.4654C10.3702 16.1974 10.4782 14.695 10.6941 12.9583H6.42361C6.18802 14.7777 6.07022 16.2938 6.07022 17.5068C6.07022 18.9678 6.25673 20.1393 6.62975 21.0215C6.92423 21.7657 7.19593 22.187 7.72506 22.6189C8.28971 23.0798 8.67402 23.1769 9.62395 23.2543C10.2518 23.2729 10.8112 23.2288 11.3449 23.1312Z" fill={fill}/>
  </g>
  <defs>
    <clipPath id="clip0_93_3240">
      <rect width="70" height="36" fill="white"/>
    </clipPath>
  </defs>
</svg>