<svg xmlns="http://www.w3.org/2000/svg" width="42" height="22" viewBox="0 0 42 22" fill="none">
  <g clip-path="url(#clip0_93_2844)">
    <path d="M37.3832 16.9824C36.9502 16.9824 36.5748 16.8236 36.2572 16.506C35.9541 16.2028 35.8025 15.8347 35.8025 15.4016C35.8025 14.9686 35.9541 14.6004 36.2572 14.2973C36.5748 13.9797 36.9502 13.8209 37.3832 13.8209C37.8163 13.8209 38.1844 13.9797 38.4876 14.2973C38.8052 14.6004 38.964 14.9686 38.964 15.4016C38.964 15.8347 38.8052 16.2028 38.4876 16.506C38.1844 16.8236 37.8163 16.9824 37.3832 16.9824ZM36.5171 11.9803L37.8163 0.720215H40.8479L38.6825 11.9803H36.5171Z" fill="white"/>
    <path d="M23.9036 5.98202C25.2894 5.62112 26.6825 5.44067 28.0828 5.44067C29.9162 5.44067 31.4319 5.80157 32.6301 6.52337C33.8428 7.24517 34.4491 8.44336 34.4491 10.1179C34.4491 13.8136 31.8001 16.0656 26.502 16.874V21.2914H23.9036V5.98202ZM26.502 14.4487C28.2344 14.1745 29.5553 13.6981 30.4647 13.0196C31.3886 12.3411 31.8506 11.3739 31.8506 10.1179C31.8506 9.30953 31.5258 8.71765 30.8762 8.34231C30.241 7.96698 29.3748 7.77931 28.2777 7.77931C27.7291 7.77931 27.1372 7.82262 26.502 7.90923V14.4487Z" fill="white"/>
    <path d="M19.9501 4.29291C19.517 4.29291 19.1417 4.14133 18.8241 3.83817C18.521 3.53502 18.3694 3.1669 18.3694 2.73382C18.3694 2.2863 18.521 1.91097 18.8241 1.60781C19.1417 1.30465 19.517 1.15308 19.9501 1.15308C20.3832 1.15308 20.7513 1.30465 21.0545 1.60781C21.3721 1.91097 21.5309 2.2863 21.5309 2.73382C21.5309 3.1669 21.3721 3.53502 21.0545 3.83817C20.7513 4.14133 20.3832 4.29291 19.9501 4.29291ZM18.6509 16.9605V5.50554H21.2494V16.9605H18.6509Z" fill="white"/>
    <path fill-rule="evenodd" clip-rule="evenodd" d="M8.35304 16.2295C8.55027 16.1666 8.74271 16.0975 8.93038 16.0223C9.65757 16.3967 10.4771 16.5839 11.3889 16.5839C12.1181 16.5839 12.853 16.4658 13.5934 16.2295C14.3338 15.9932 15.007 15.6703 15.6128 15.2607V12.0945C15.1192 12.6931 14.4797 13.1656 13.6944 13.5122C12.9203 13.843 12.2734 14.0346 11.3889 14.0084C10.8461 13.9642 10.6265 13.9087 10.3038 13.6453C10.0014 13.3985 9.84615 13.1578 9.67787 12.7324C9.46471 12.2284 9.35814 11.5589 9.35814 10.724C9.35814 10.0309 9.42545 9.16448 9.56007 8.12481H15.6128V5.52564L10.3724 5.52563H0.847656V8.12481H1.52079C1.39738 9.11722 1.33567 9.97574 1.33567 10.7004C1.33567 11.9921 1.53761 13.1105 1.94149 14.0557C2.28927 14.9063 2.839 15.5443 3.59066 15.9696C4.34232 16.3792 5.19495 16.5839 6.14855 16.5839C6.87777 16.5839 7.6126 16.4658 8.35304 16.2295ZM4.31973 8.12481H6.088V8.12481H6.76113C6.63773 9.11723 6.57602 9.97574 6.57602 10.7004C6.57602 11.9388 6.76165 13.018 7.13291 13.9378C6.82768 13.9938 6.5077 14.019 6.14855 14.0084C5.60571 13.9642 5.3861 13.9087 5.06343 13.6453C4.76106 13.3985 4.60581 13.1578 4.43752 12.7324C4.22437 12.2284 4.11779 11.5589 4.11779 10.724C4.11779 10.0309 4.1851 9.16448 4.31973 8.12481Z" fill="white"/>
  </g>
  <defs>
    <clipPath id="clip0_93_2844">
      <rect width="41" height="21" fill="white" transform="translate(0.5 0.720215)"/>
    </clipPath>
  </defs>
</svg>