<svg xmlns="http://www.w3.org/2000/svg" width="16" height="17" viewBox="0 0 16 17" fill="#FF9135">
  <path fill-rule="evenodd" clip-rule="evenodd" d="M3.78774 3.80455C4.88669 2.49658 6.44424 1.83765 8.00006 1.83765C9.55566 1.83765 11.1067 2.48977 12.2126 3.80478C14.1225 6.07568 13.826 9.42616 11.7717 11.4878L11.771 11.4886C10.6052 12.6543 9.26377 14.0713 8.70097 14.6657C8.6626 14.7062 8.62786 14.7429 8.59703 14.7755C8.27354 15.1206 7.72662 15.1206 7.40312 14.7755C7.37228 14.743 7.33753 14.7063 7.29915 14.6657C6.73635 14.0713 5.39488 12.6543 4.22913 11.4886L4.22837 11.4878C2.17461 9.42667 1.87705 6.06935 3.78774 3.80455ZM6.14672 7.33098C6.14672 6.30628 6.97535 5.47765 8.00006 5.47765C9.02476 5.47765 9.85339 6.30628 9.85339 7.33098C9.85339 8.35568 9.02476 9.18431 8.00006 9.18431C6.97535 9.18431 6.14672 8.35568 6.14672 7.33098Z" fill={fill}/>
</svg>