<svg xmlns="http://www.w3.org/2000/svg" width="33" height="32" viewBox="0 0 33 32" fill="#D6D6D6">
  <path fill-rule="evenodd" clip-rule="evenodd" d="M16.2581 28C22.8855 28 28.2581 22.6274 28.2581 16C28.2581 9.37258 22.8855 4 16.2581 4C9.63064 4 4.25806 9.37258 4.25806 16C4.25806 22.6274 9.63064 28 16.2581 28ZM11.7581 14.5C12.5865 14.5 13.2581 13.8284 13.2581 13C13.2581 12.1716 12.5865 11.5 11.7581 11.5C10.9296 11.5 10.2581 12.1716 10.2581 13C10.2581 13.8284 10.9296 14.5 11.7581 14.5ZM22.2581 13C22.2581 13.8284 21.5865 14.5 20.7581 14.5C19.9296 14.5 19.2581 13.8284 19.2581 13C19.2581 12.1716 19.9296 11.5 20.7581 11.5C21.5865 11.5 22.2581 12.1716 22.2581 13ZM21.5614 21.3032C22.1471 20.7174 22.1471 19.7676 21.5614 19.1818C20.9756 18.5961 20.0258 18.5961 19.44 19.1818C17.6827 20.9392 14.8334 20.9392 13.0761 19.1818C12.4903 18.5961 11.5405 18.5961 10.9548 19.1818C10.369 19.7676 10.369 20.7174 10.9548 21.3032C13.8837 24.2321 18.6324 24.2321 21.5614 21.3032Z" fill={fill}/>
</svg>