<svg xmlns="http://www.w3.org/2000/svg" width="25" height="24" viewBox="0 0 25 24" fill="none">
  <path d="M11.3445 8C11.3445 9.65685 10.0013 11 8.34448 11C6.68763 11 5.34448 9.65685 5.34448 8C5.34448 6.34315 6.68763 5 8.34448 5C10.0013 5 11.3445 6.34315 11.3445 8Z" fill="#A3A3A3"/>
  <path d="M19.3445 8C19.3445 9.65685 18.0013 11 16.3445 11C14.6876 11 13.3445 9.65685 13.3445 8C13.3445 6.34315 14.6876 5 16.3445 5C18.0013 5 19.3445 6.34315 19.3445 8Z" fill="#A3A3A3"/>
  <path d="M15.2736 19C15.3203 18.6734 15.3445 18.3395 15.3445 18C15.3445 16.3648 14.7838 14.8606 13.8442 13.6691C14.5797 13.2435 15.4337 13 16.3445 13C19.1059 13 21.3445 15.2386 21.3445 18V19H15.2736Z" fill="#A3A3A3"/>
  <path d="M8.34448 13C11.1059 13 13.3445 15.2386 13.3445 18V19H3.34448V18C3.34448 15.2386 5.58306 13 8.34448 13Z" fill="#A3A3A3"/>
</svg>